<?xml version="1.0" standalone="no"?>
<!DOCTYPE svg PUBLIC "-//W3C//DTD SVG 20010904//EN"
 "http://www.w3.org/TR/2001/REC-SVG-20010904/DTD/svg10.dtd">
<svg version="1.0" xmlns="http://www.w3.org/2000/svg"
 width="1184.000000pt" height="1184.000000pt" viewBox="0 0 1184.000000 1184.000000"
 preserveAspectRatio="xMidYMid meet">
<metadata>
Created by potrace 1.11, written by Peter Selinger 2001-2013
</metadata>
<g transform="translate(0.000000,1184.000000) scale(0.100000,-0.100000)"
fill="#000000" stroke="none">
<path d="M8435 8804 c-226 -54 -383 -140 -535 -293 -177 -178 -309 -437 -385
-756 -16 -67 -25 -89 -36 -85 -8 3 -42 5 -76 5 -55 0 -65 -3 -93 -30 l-32 -30
7 35 c4 19 32 122 62 228 30 106 52 200 49 208 -9 23 -118 15 -171 -12 -35
-18 -41 -28 -67 -105 -16 -46 -36 -111 -45 -144 -19 -70 -46 -105 -74 -98 -15
4 -19 14 -19 48 0 33 -4 44 -19 48 -29 7 -133 -12 -166 -32 -28 -16 -30 -21
-33 -89 -3 -66 -5 -74 -32 -93 -32 -24 -55 -71 -47 -93 3 -8 20 -17 37 -21 22
-5 30 -12 28 -23 -5 -22 -72 -21 -97 2 -10 9 -35 16 -59 16 -46 0 -47 1 -57
91 l-6 56 40 18 c31 13 41 24 41 41 0 19 -7 24 -45 30 l-45 6 0 152 c0 83 -5
158 -10 166 -14 23 -106 18 -157 -8 -65 -34 -67 -41 -59 -257 3 -104 9 -200
12 -212 5 -17 2 -23 -10 -23 -13 0 -16 12 -16 71 0 39 -4 79 -10 89 -13 24
-74 44 -111 36 -32 -6 -34 -4 -17 23 9 14 4 47 -25 162 -20 79 -40 164 -43
189 -12 85 -48 110 -127 89 -46 -12 -84 -42 -98 -77 -13 -33 32 -254 77 -378
18 -51 55 -70 115 -60 37 6 39 5 29 -13 -5 -11 -10 -34 -10 -51 0 -28 -2 -30
-21 -19 -13 6 -42 9 -68 6 -52 -6 -101 -50 -101 -91 0 -19 -4 -23 -19 -19 -22
6 -60 147 -68 260 -5 64 -9 77 -32 94 -21 17 -37 20 -83 17 l-57 -4 -26 85
c-46 149 -49 155 -79 169 -57 28 -163 -12 -181 -68 -3 -10 3 -54 15 -98 11
-44 20 -83 20 -86 0 -7 -90 -46 -108 -46 -28 0 -102 -50 -107 -73 -3 -12 -1
-45 3 -74 10 -58 10 -58 -78 -65 l-35 -3 -22 75 c-12 41 -22 87 -22 101 -2 59
-91 90 -160 55 l-28 -15 -23 57 c-40 98 -122 254 -182 344 -171 255 -452 391
-778 375 -214 -11 -404 -80 -527 -192 -120 -109 -158 -241 -129 -452 19 -137
55 -287 91 -375 14 -34 25 -63 25 -65 0 -2 -9 -3 -21 -3 -11 0 -43 -10 -70
-21 -49 -21 -59 -22 -332 -16 -155 4 -354 13 -442 21 -331 31 -445 38 -611 34
-188 -3 -202 -8 -228 -69 -6 -15 -31 -42 -56 -61 -40 -30 -87 -85 -116 -133
-9 -17 -16 -15 -85 30 -118 76 -245 153 -310 185 -54 28 -63 29 -105 20 -57
-13 -120 -44 -127 -64 -7 -18 -2 -22 103 -81 47 -26 144 -85 216 -131 115 -74
137 -84 177 -84 25 0 56 4 69 9 l23 9 1 -132 c1 -93 7 -147 19 -186 9 -30 19
-76 22 -102 4 -43 2 -49 -27 -75 -39 -35 -46 -69 -56 -248 -5 -103 -10 -134
-24 -150 -48 -55 -32 -461 40 -1035 6 -47 29 -188 51 -315 37 -204 40 -235 30
-284 -6 -30 -11 -94 -11 -142 l0 -89 -40 -20 c-41 -21 -60 -45 -60 -78 0 -29
93 -145 155 -194 l56 -43 -44 -5 c-56 -7 -76 -20 -208 -142 -116 -107 -130
-132 -87 -162 30 -21 84 -20 133 3 47 22 245 202 260 236 9 21 12 22 36 9 56
-29 201 -63 315 -74 113 -11 330 -3 486 16 l48 7 -45 -97 c-56 -119 -125 -291
-125 -311 0 -33 111 -30 180 5 31 16 39 29 69 111 18 52 56 142 84 201 l50
108 444 0 c390 0 448 -2 475 -16 51 -27 464 -15 663 19 110 19 235 30 465 42
173 8 380 20 460 25 343 23 581 30 1351 41 l817 11 38 -25 c37 -24 51 -26 262
-37 181 -9 230 -14 260 -29 38 -19 212 -34 732 -62 121 -6 217 -16 235 -24 17
-7 86 -15 155 -18 69 -3 242 -18 385 -33 320 -33 615 -37 767 -11 174 30 369
108 458 184 40 33 37 64 -6 77 l-31 9 43 107 c61 151 120 326 155 458 20 75
38 120 53 135 19 19 24 38 30 112 6 89 25 218 91 620 19 116 37 241 41 278 l7
68 136 69 c146 75 331 187 394 240 67 57 37 110 -64 110 -37 0 -58 -8 -110
-42 -67 -43 -334 -198 -342 -198 -2 0 -7 51 -9 113 -3 61 -14 156 -24 211 -16
86 -16 112 -6 205 16 145 15 321 -3 406 -20 96 -75 203 -130 254 -50 46 -61
48 -134 24 -51 -16 -52 -16 -76 7 -14 13 -25 31 -25 41 0 9 -7 22 -15 29 -9 7
-13 21 -9 35 4 16 -1 29 -16 43 -24 22 -199 82 -297 102 -35 7 -63 16 -63 19
0 18 61 100 89 120 17 13 38 36 47 53 14 27 14 31 -2 49 -21 24 -98 26 -150 4
-39 -16 -132 -105 -163 -156 l-21 -34 -244 0 -245 0 6 22 c4 18 -1 25 -23 34
-23 9 -71 6 -233 -14 -113 -15 -207 -25 -209 -23 -2 3 17 64 42 138 124 364
139 608 47 804 -54 115 -148 184 -308 225 -95 24 -372 26 -468 3z m-1408
-1266 c-3 -8 -6 -5 -6 6 -1 11 2 17 5 13 3 -3 4 -12 1 -19z m213 -52 c0 -3 -4
-8 -10 -11 -5 -3 -10 -1 -10 4 0 6 5 11 10 11 6 0 10 -2 10 -4z m-3213 -166
c37 -22 40 -35 47 -185 2 -57 11 -120 21 -147 16 -44 16 -49 -1 -76 -9 -16
-41 -44 -70 -62 -91 -55 -225 -53 -256 4 -17 31 -24 372 -8 401 13 23 72 61
118 75 50 15 116 11 149 -10z m3304 -280 c12 -14 18 -52 23 -162 4 -79 18
-278 31 -444 34 -416 55 -694 55 -729 0 -17 4 -25 9 -20 5 6 50 87 100 181 59
110 91 182 91 202 0 20 10 43 28 64 37 43 110 180 212 398 109 231 160 317
247 410 84 90 139 118 242 127 72 6 111 -6 111 -33 0 -8 -21 -34 -46 -57 -67
-60 -117 -140 -188 -295 -34 -75 -112 -235 -173 -355 l-110 -218 117 -242 c65
-133 137 -294 160 -357 24 -63 87 -216 140 -340 123 -285 144 -347 131 -382
-25 -65 -123 -114 -212 -106 -66 7 -91 32 -123 124 -15 41 -65 166 -112 277
-47 111 -103 252 -124 312 -40 118 -148 365 -159 365 -3 0 -35 -46 -71 -103
-73 -115 -195 -280 -234 -316 l-26 -24 -1 -181 c-1 -252 -10 -340 -39 -371
-49 -52 -200 -83 -264 -54 -32 15 -36 26 -26 80 10 58 23 405 16 418 -4 5 -8
97 -11 203 -2 106 -22 425 -45 708 -22 283 -43 587 -46 675 -6 153 -6 161 15
187 58 72 237 109 282 58z m-2083 -85 c123 -11 231 -66 268 -136 19 -37 18
-128 -1 -156 -33 -47 -232 -92 -284 -64 -18 10 -21 18 -15 46 21 113 -94 185
-296 185 -123 0 -183 -20 -218 -72 -25 -38 -27 -49 -27 -142 0 -56 6 -197 12
-314 10 -190 14 -217 35 -259 12 -26 34 -55 48 -65 43 -31 132 -40 291 -30
239 15 334 -8 417 -104 80 -90 104 -209 95 -464 -4 -113 -2 -166 12 -240 42
-230 31 -278 -85 -355 -89 -59 -160 -91 -267 -120 -137 -36 -246 -55 -367 -61
-271 -15 -378 50 -380 229 -1 122 10 332 18 345 27 43 212 95 271 75 l30 -10
-1 -84 c0 -46 -4 -133 -9 -194 -6 -90 -5 -117 8 -147 32 -76 102 -92 297 -68
106 14 163 39 184 84 21 45 20 78 -6 189 -19 80 -22 123 -22 332 -1 204 -4
247 -19 285 -28 72 -65 117 -116 142 -44 22 -56 23 -301 23 l-255 0 -52 27
c-28 15 -61 41 -72 57 -48 66 -54 98 -63 311 -4 113 -11 251 -14 307 -8 136 8
187 85 263 113 112 281 172 529 189 103 8 147 7 270 -4z m806 9 c14 -5 16 -31
16 -178 0 -94 7 -281 15 -416 8 -135 15 -312 15 -394 l0 -149 143 7 c78 3 184
9 236 12 l93 7 -6 101 c-4 55 -14 175 -22 266 -8 91 -18 249 -21 352 -7 215
-5 221 73 258 60 28 146 31 191 7 41 -22 53 -63 53 -182 0 -49 9 -202 20 -340
11 -137 25 -344 30 -460 6 -115 20 -302 32 -415 38 -368 27 -620 -30 -700 -60
-83 -268 -94 -288 -14 -4 15 -2 55 5 89 6 34 11 122 11 194 0 133 -37 671 -46
681 -7 7 -473 5 -480 -2 -3 -3 -8 -91 -11 -194 -5 -173 -3 -204 22 -369 28
-183 30 -298 6 -343 -18 -33 -107 -65 -199 -70 -47 -3 -88 0 -93 5 -5 5 -11
52 -13 104 -2 52 -11 148 -20 214 -21 148 -22 236 -6 585 11 240 10 307 -5
530 -19 287 -31 685 -22 722 15 57 225 121 301 92z m3748 -87 c59 -29 91 -66
114 -130 16 -45 38 -323 49 -639 l7 -188 49 0 c81 0 129 -29 129 -79 0 -48
-71 -101 -136 -101 l-26 0 6 -277 c3 -153 9 -317 12 -364 14 -202 -46 -289
-220 -320 -65 -11 -136 -6 -136 10 0 4 8 23 18 42 13 27 17 59 17 154 0 150
-16 716 -20 731 -2 8 -35 7 -112 -3 -95 -13 -124 -13 -243 1 -155 19 -245 20
-286 6 l-29 -10 3 -443 3 -443 -23 -20 c-49 -45 -218 -85 -270 -65 l-26 10 -5
458 c-3 392 -7 482 -26 628 -93 732 102 985 824 1065 44 5 124 7 177 6 80 -2
105 -7 150 -29z m-6377 -3 c11 -11 14 -26 9 -48 -3 -20 1 -54 12 -87 15 -46
18 -100 19 -369 2 -195 9 -389 19 -510 14 -154 16 -250 10 -460 -6 -246 -5
-274 15 -385 37 -203 29 -289 -31 -340 -65 -55 -176 -79 -239 -52 -43 18 -52
43 -31 87 14 30 14 41 -3 139 -17 91 -20 158 -20 481 -1 357 -9 511 -25 493
-16 -16 -79 -233 -115 -392 -20 -90 -43 -180 -50 -200 -7 -20 -10 -51 -7 -69
3 -27 -1 -39 -23 -62 -33 -35 -127 -78 -187 -86 -82 -11 -155 45 -127 97 18
35 -51 230 -151 424 -48 94 -105 213 -126 265 l-39 95 -3 -90 c-2 -49 1 -205
7 -345 6 -140 14 -347 17 -460 l7 -206 -32 -36 c-41 -47 -113 -72 -184 -65
-44 4 -56 10 -94 50 -46 49 -52 74 -27 112 15 22 15 51 5 287 -6 145 -16 421
-21 614 -6 193 -17 407 -26 475 -34 280 -29 411 20 509 31 62 92 93 185 94 78
0 117 -18 128 -61 3 -15 25 -68 48 -118 55 -117 120 -274 239 -575 98 -250
190 -437 200 -410 3 8 24 67 47 130 121 336 264 863 252 933 -5 32 -1 40 39
79 31 31 60 49 98 60 74 22 164 23 185 2z m667 -296 c8 -16 14 -120 19 -353 6
-298 9 -344 33 -470 24 -126 27 -169 31 -430 2 -159 9 -317 14 -350 27 -152 7
-209 -87 -253 -46 -22 -75 -27 -149 -30 -79 -3 -93 -2 -93 11 0 9 4 18 9 21
19 12 19 83 1 184 -16 86 -20 154 -20 342 0 207 -4 259 -30 440 -26 179 -30
234 -30 435 -1 127 -5 264 -10 305 -7 64 -6 78 8 94 37 41 141 74 234 75 49 1
59 -2 70 -21z"/>
<path d="M9378 6785 c-3 -3 -51 -10 -106 -15 -56 -5 -114 -16 -130 -24 -105
-54 -181 -210 -197 -403 -5 -65 18 -459 27 -469 2 -1 39 2 83 8 56 7 144 6
293 -2 118 -7 234 -9 259 -5 l45 7 -7 61 c-4 34 -10 204 -15 377 -9 384 -16
411 -105 451 -37 17 -135 26 -147 14z"/>
<path d="M1692 8180 c-43 -7 -102 -51 -102 -77 0 -25 80 -181 96 -187 26 -10
104 -7 127 5 36 19 67 51 67 70 0 30 -38 122 -62 152 -28 33 -68 45 -126 37z"/>
<path d="M5050 8044 c-45 -20 -70 -43 -70 -66 0 -21 42 -107 73 -152 20 -28
22 -28 88 -24 54 4 76 11 104 32 19 15 35 35 35 44 0 20 -77 164 -94 174 -19
13 -99 8 -136 -8z"/>
<path d="M9894 8039 c-18 -5 -51 -32 -81 -66 -57 -66 -64 -81 -51 -106 28 -54
136 -38 208 29 26 24 55 60 66 80 l19 36 -24 19 c-25 21 -82 24 -137 8z"/>
<path d="M2460 7783 c-39 -20 -55 -34 -55 -48 0 -17 7 -20 51 -20 40 1 63 8
100 31 63 38 64 58 4 62 -34 2 -59 -4 -100 -25z"/>
<path d="M11215 7765 c-5 -2 -29 -9 -52 -15 -34 -8 -69 -38 -202 -169 -89 -88
-161 -162 -161 -165 0 -13 118 -4 157 12 80 32 364 306 347 334 -5 8 -69 10
-89 3z"/>
<path d="M405 5366 c-27 -8 -108 -26 -180 -41 -139 -30 -173 -43 -205 -77 -47
-51 -1 -113 80 -106 69 6 390 78 422 94 39 20 68 54 68 79 0 54 -87 77 -185
51z"/>
<path d="M11284 5226 c-69 -30 -93 -86 -53 -122 19 -17 41 -19 263 -22 235 -2
242 -2 281 21 66 37 72 94 14 124 -35 19 -463 17 -505 -1z"/>
<path d="M4495 3944 c-22 -8 -45 -20 -52 -27 -17 -17 -125 -316 -121 -336 5
-25 121 -22 172 5 38 19 41 26 78 135 21 63 47 135 58 161 31 73 29 78 -37 77
-32 0 -76 -7 -98 -15z"/>
<path d="M4829 3732 c-69 -25 -86 -42 -93 -89 -6 -41 -6 -42 27 -48 40 -8 140
25 174 57 16 15 23 33 23 60 l0 38 -42 -1 c-24 0 -64 -8 -89 -17z"/>
<path d="M9506 3675 c-22 -8 -51 -25 -65 -40 l-26 -25 58 -114 c47 -93 63
-116 88 -127 51 -21 151 14 182 63 8 11 -3 41 -42 119 -29 57 -62 112 -73 122
-24 20 -68 21 -122 2z"/>
<path d="M9226 3469 c-51 -12 -116 -49 -116 -66 0 -22 35 -85 136 -244 l96
-149 56 0 c59 0 126 24 151 53 11 14 1 36 -82 166 -53 82 -105 168 -117 191
-12 23 -32 45 -46 50 -28 11 -25 11 -78 -1z"/>
</g>
</svg>
